<?xml version="1.0" encoding="UTF-8" standalone="no"?>
<svg
   xmlns:dc="http://purl.org/dc/elements/1.1/"
   xmlns:cc="http://creativecommons.org/ns#"
   xmlns:rdf="http://www.w3.org/1999/02/22-rdf-syntax-ns#"
   xmlns:svg="http://www.w3.org/2000/svg"
   xmlns="http://www.w3.org/2000/svg"
   xmlns:sodipodi="http://sodipodi.sourceforge.net/DTD/sodipodi-0.dtd"
   xmlns:inkscape="http://www.inkscape.org/namespaces/inkscape"
   version="1.1"
   x="0px"
   y="0px"
   viewBox="0 0 64 64"
   enable-background="new 0 0 100 100"
   xml:space="preserve"
   id="svg3336"
   inkscape:version="0.91 r13725"
   sodipodi:docname="icon.svg"
   width="64"
   height="64"><metadata
     id="metadata3362"><rdf:RDF><cc:Work
         rdf:about=""><dc:format>image/svg+xml</dc:format><dc:type
           rdf:resource="http://purl.org/dc/dcmitype/StillImage" /><dc:title></dc:title></cc:Work></rdf:RDF></metadata><defs
     id="defs3360" /><sodipodi:namedview
     pagecolor="#000000"
     bordercolor="#666666"
     borderopacity="1"
     objecttolerance="10"
     gridtolerance="10"
     guidetolerance="10"
     inkscape:pageopacity="0"
     inkscape:pageshadow="2"
     inkscape:window-width="1714"
     inkscape:window-height="855"
     id="namedview3358"
     showgrid="false"
     inkscape:zoom="1"
     inkscape:cx="89.095454"
     inkscape:cy="-16.617009"
     inkscape:window-x="1534"
     inkscape:window-y="52"
     inkscape:window-maximized="0"
     inkscape:current-layer="g3338" /><g
     id="g3338"
     transform="translate(0,-61)"><path
       d="m 18.615279,87.994442 c 1.26269,0.386112 6.992284,-0.336306 7.286548,-0.56051 1.168495,-0.889797 0.70063,-2.710659 -0.747339,-3.176189 -1.577973,-0.506788 -6.152307,0.545714 -8.220722,0.560504 -2.02404,0.01479 -4.514391,-0.242884 -7.0997137,0 -0.4740932,0.335524 -0.8827939,0.736436 -0.7473387,1.681512 1.7733714,0.961423 3.3567944,1.29305 5.2313684,0.934173 0.259232,0.114456 0.02803,0.719313 0.373669,0.747342 0.221866,-0.572192 0.800275,-0.04511 1.121009,-0.747342 0.895249,1.345989 2.131471,0.190731 2.802519,0.186832 -0.200848,0.0014 -0.218753,0.306718 0,0.373678 z"
       id="path3340"
       style="clip-rule:evenodd;fill:#ffffff;fill-rule:evenodd"
       inkscape:connector-curvature="0" /><path
       d="m 36.738234,108.54624 c 1.766367,-1.56551 2.950427,-5.94679 3.550636,-8.96807 0.390794,-1.96642 0.425825,-4.5424 0.372889,-6.726029 -0.282584,-0.650041 -1.254128,-0.969986 -2.05518,-0.560509 -0.470201,1.809183 -0.892136,3.172298 -0.934171,5.044528 -0.07707,0.23511 -0.241329,0.38146 -0.560506,0.3729 0.60877,0.70375 -0.607211,2.57676 -0.560503,3.55063 0.01711,0.36277 0.157252,0.54961 0.215638,0.60955 -0.04204,-0.0358 -0.151024,-0.11362 -0.403251,-0.23665 -0.441397,3.26415 -2.791622,4.36803 -3.549856,6.5392 0.383786,0.36433 0.613438,0.88124 0.93417,1.30785 1.177061,0.12072 2.139256,-0.17827 2.990134,-0.9334 z"
       id="path3342"
       style="clip-rule:evenodd;fill:#ffffff;fill-rule:evenodd"
       inkscape:connector-curvature="0" /><path
       d="m 59.532054,103.50248 c -0.0506,-0.40013 0.144796,-1.99368 -0.186834,-1.49467 0.0506,0.39935 -0.144796,1.99212 0.186834,1.49467 z"
       id="path3344"
       style="clip-rule:evenodd;fill:#ffffff;fill-rule:evenodd"
       inkscape:connector-curvature="0" /><path
       d="m 29.26485,79.960548 c 0.263126,0.850876 1.16616,1.167716 1.307842,1.868345 0.154918,0.764465 -0.393131,1.597437 -0.186835,2.615684 0.323068,1.595886 2.132249,1.762472 3.176188,2.989355 0.429721,0.504452 0.206296,1.350654 0.561281,1.868347 0.386904,0.565175 1.653488,1.080529 1.86757,1.681515 0.371332,-0.339424 0.597872,-0.504451 1.308619,0 0.174378,-0.783154 0.955193,0.122253 1.120229,-0.747341 0.863334,2.160277 5.133283,2.617234 5.979486,0.373664 -0.04126,0.234326 -0.29115,0.381461 0.186058,0.373677 2.062962,-0.09886 5.980264,-0.664048 5.418203,-3.36303 2.396929,-0.765233 4.448997,-2.606341 3.363023,-5.791871 2.097994,-1.440961 1.764027,-4.698889 0.186835,-5.978706 0.249111,-2.180517 -0.255344,-3.605908 -1.12101,-4.670865 -3.180858,-0.449182 -3.096781,-5.197116 -6.912879,-3.549858 -0.973098,-0.397023 -1.943858,-0.795604 -2.615683,-1.494676 -1.620793,-0.746561 -2.734016,1.006571 -4.109585,1.307843 -0.864108,0.189169 -1.767922,-0.1954 -2.615683,0 -1.799839,0.415705 -1.915057,1.898705 -2.80252,3.176186 -2.267705,0.671827 -3.329548,2.410167 -2.802519,5.418204 -1.127235,1.013577 -1.726662,2.575204 -1.30862,3.923527 z m 3.923526,-6.165542 c 0.980104,-0.225758 0.929502,-0.08251 1.681512,-0.934172 0.572179,0.18372 -0.214859,0.499003 -0.186835,0.747337 0.461637,-0.34798 0.762131,-0.857881 1.494678,-0.934172 -0.579187,-1.005793 1.317963,-1.085977 0.373668,-2.055182 1.563182,0.23588 3.900951,0.199292 4.670867,-1.307841 -0.03581,0.151025 -0.187614,0.186056 -0.186839,0.373669 1.517253,-0.914712 3.454887,2.010808 5.04376,0.560504 1.293828,1.011242 2.087874,3.516382 3.923526,3.363022 0.350313,1.649594 0.138571,4.14695 1.494677,4.857701 -0.586973,1.489226 -1.840322,3.024385 -1.12023,5.231368 -2.026377,0.589307 -2.641374,2.589997 -3.736692,4.110356 -1.688519,-0.872671 -3.560755,0.288825 -4.670866,1.12102 -1.792833,-0.815848 -2.777607,-1.943871 -5.232147,-1.307852 -0.77692,-1.776476 -2.041945,-3.064085 -3.923525,-3.736689 0.61188,-2.098776 -0.277919,-3.997483 -1.307845,-5.044535 0.915492,-1.367785 2.243573,-2.752697 1.682291,-5.044534 z"
       id="path3346"
       style="clip-rule:evenodd;fill:#ffffff;fill-rule:evenodd"
       inkscape:connector-curvature="0" /><path
       d="m 47.014137,107.23841 c 0.449179,-0.29817 0.804947,-0.69052 1.308621,-0.93419 -0.989447,-4.89273 -2.590774,-7.34104 -2.803298,-13.452079 -0.320732,-0.613448 -0.996451,-0.871905 -2.05518,-0.747341 -0.976989,1.276703 -0.555833,2.035713 -0.747341,2.98935 -0.04516,-0.203177 -0.308275,-0.449186 -0.373669,-0.18683 0.16893,0.40403 0.116767,1.3273 0.373669,0.5605 0.01635,0.72243 0.116781,0.5862 -0.186834,1.30785 1.20664,2.47244 1.155261,9.28177 4.484032,10.46274 z"
       id="path3348"
       style="clip-rule:evenodd;fill:#ffffff;fill-rule:evenodd"
       inkscape:connector-curvature="0" /><path
       d="m 33.001543,96.9625 c -1.046273,-0.028 -1.952423,-0.71309 -2.989354,-0.18683 -0.02959,-0.21954 0.03269,-0.53016 -0.186835,-0.56051 -0.420378,0.55349 -1.760916,0.59398 -1.494677,0 -0.01017,0.19695 -0.239771,0.14635 -0.186835,-0.18683 -0.773027,-0.16271 -0.977768,1.20119 -0.747339,0 -0.65937,0.71152 -1.352992,0.0537 -1.68151,0 -0.469422,-0.0763 -1.900264,-0.0809 -2.242015,0 -0.267796,0.0639 -1.393476,1.25489 -0.934174,0.18683 -3.743697,0.14091 -8.009754,0.32618 -12.7047517,0.18683 -0.5636174,0.61967 -1.43162,0.93417 -1.3078428,2.24202 0.8026114,1.91039 3.5327315,0.92794 5.4182035,0.74733 2.854676,-0.2748 7.267087,0.19229 10.275903,0.18683 2.665507,-0.006 8.055686,0.07 9.154895,-0.93416 0.08019,-0.76524 -0.172821,-1.19653 -0.373668,-1.68151 z"
       id="path3350"
       style="clip-rule:evenodd;fill:#ffffff;fill-rule:evenodd"
       inkscape:connector-curvature="0" /><path
       d="m 8.5262095,102.9412 c -0.04904,2.82353 3.9017295,1.52894 6.7260465,1.30862 3.698546,-0.28959 7.956818,0.53014 10.649571,-0.37366 0.229651,-0.52859 0.229651,-1.15294 0,-1.68152 -3.212776,-0.5753 -5.114596,-1.53594 -6.539211,-0.74734 -0.256897,-1.14046 -1.926732,-0.26468 -2.601671,-0.0475 -0.01239,0.0241 -0.07084,0.042 -0.20007,0.0475 0.04826,-0.003 0.118326,-0.0202 0.20007,-0.0475 0.05294,-0.10192 -0.709971,-0.32618 -0.573739,-0.32618 -2.133028,-0.004 -7.6236287,-0.25222 -7.6609965,1.86756 z"
       id="path3352"
       style="clip-rule:evenodd;fill:#ffffff;fill-rule:evenodd"
       inkscape:connector-curvature="0" /><path
       d="m 13.757578,109.48042 c 3.515605,-0.34097 8.776556,-0.17517 12.144249,-0.74734 0.04204,-0.14558 0.0047,-0.369 0.186835,-0.3729 0.108203,-0.60643 -0.127669,-0.86955 -0.186835,-1.30862 -3.212776,-0.5753 -5.114596,-1.53593 -6.539211,-0.74734 -0.02881,-0.21953 0.03269,-0.53014 -0.186835,-0.5605 -1.612226,0.46552 -5.455569,0.11515 -8.59439,0.37289 -1.0875334,0.0895 -2.0341618,0.81273 -2.0551815,1.68151 -0.051379,2.10968 3.0983405,1.88937 5.2313685,1.6823 z"
       id="path3354"
       style="clip-rule:evenodd;fill:#ffffff;fill-rule:evenodd"
       inkscape:connector-curvature="0" /><path
       d="m 62.521408,87.433932 c 0,-4.833567 1.187956,-10.960963 -2.055179,-12.144249 -1.591989,-0.581522 -5.133282,-0.559725 -5.23137,0.934172 -0.144019,2.182072 3.22134,0.780035 4.670863,1.681513 0.599429,4.684099 -0.334746,11.096418 -0.373668,17.189562 -0.0085,1.35611 0.425826,2.72389 0.373668,4.10958 -0.07395,1.96254 -0.582299,4.52607 0.18606,5.41821 -1.344433,2.53004 -0.370556,6.29398 -0.560507,8.59439 0,-0.24833 0,-0.49823 0,-0.74734 -0.73566,0.28725 0.55739,2.23111 0,2.98935 -0.36822,0.37912 -1.364671,0.13075 -1.494678,0.74734 -0.980878,-0.0887 -1.518031,-0.69051 -2.615681,-0.74734 -0.824407,-0.0427 -1.631691,0.35109 -2.428074,0.37367 -1.370899,0.0397 -2.767485,-0.30282 -4.297972,-0.37367 -2.846892,-0.13158 -6.002061,0.37289 -8.968061,0.37367 -1.684627,7.3e-4 -3.262599,-0.0958 -4.857701,0 -1.330417,0.0802 -2.68964,0.60644 -3.923525,0.18684 0.249111,0 0.498226,0 0.747337,0 -6.684785,-0.90382 -18.632078,0.23977 -26.7173465,-0.37368 -0.7434456,-4.59457 0.453075,-11.79238 -0.5605027,-16.62749 0.953635,-7.836165 -0.5371494,-14.450104 0.5605027,-20.925479 3.9585584,-0.170487 10.7243055,-0.357322 14.7599335,-0.37367 2.606343,-0.01086 9.186035,1.17628 9.34173,-1.307843 0.166594,-2.657722 -7.250739,-1.943858 -9.902234,-1.868345 -4.60625,0.130788 -16.138616,-1.248677 -17.5624511,2.428849 -1.06651529,2.755033 0.3020486,8.788229 0.1868347,12.331087 -0.1588099,4.862364 -0.1011995,12.194851 0,17.936111 0.065387,3.72035 -1.336646,10.14124 2.2420148,11.39692 1.8893638,0.66326 4.9254268,0.18683 7.6602176,0.18683 7.473384,0 15.997713,-0.1518 22.980656,0.18683 2.615683,0 5.231369,0 7.847051,0 6.277644,-1.31018 12.363002,1.2082 17.562456,-0.37366 3.34745,-1.01825 2.428848,-6.88485 2.428848,-11.58375 7.28e-4,-6.70814 7.28e-4,-12.885358 7.28e-4,-19.618408 z"
       id="path3356"
       style="clip-rule:evenodd;fill:#ffffff;fill-rule:evenodd"
       inkscape:connector-curvature="0" /></g></svg>