<svg xmlns="http://www.w3.org/2000/svg" width="64" height="64"><g clip-rule="evenodd" fill="#000" fill-rule="evenodd"><path d="M18.615 26.994c1.263.387 6.993-.336 7.287-.56 1.168-.89.7-2.71-.748-3.176-1.577-.507-6.152.545-8.22.56-2.024.015-4.515-.243-7.1 0-.474.336-.883.737-.747 1.682 1.773.961 3.357 1.293 5.231.934.26.114.028.72.374.747.222-.572.8-.045 1.12-.747.896 1.346 2.132.19 2.803.187-.2.001-.218.306 0 .373zM36.738 47.546c1.767-1.565 2.95-5.947 3.55-8.968.392-1.966.427-4.542.374-6.726-.283-.65-1.254-.97-2.055-.56-.47 1.809-.893 3.172-.935 5.044-.077.235-.24.382-.56.373.609.704-.607 2.577-.56 3.55.017.363.157.55.215.61a2.041 2.041 0 00-.403-.236c-.442 3.264-2.792 4.368-3.55 6.539.384.364.613.881.934 1.308 1.177.12 2.14-.179 2.99-.934zM59.532 42.502c-.05-.4.145-1.993-.187-1.494.05.4-.145 1.992.187 1.494z"/><path d="M29.265 18.96c.263.851 1.166 1.168 1.308 1.869.155.764-.393 1.597-.187 2.616.323 1.595 2.132 1.762 3.176 2.989.43.504.206 1.35.561 1.868.387.565 1.654 1.08 1.868 1.682.371-.34.598-.505 1.309 0 .174-.783.955.122 1.12-.748.863 2.16 5.133 2.618 5.98.374-.042.234-.292.382.185.374 2.063-.1 5.98-.664 5.418-3.363 2.397-.765 4.45-2.607 3.364-5.792 2.098-1.441 1.764-4.699.186-5.979.25-2.18-.255-3.606-1.12-4.67-3.182-.45-3.097-5.198-6.914-3.55-.973-.398-1.943-.796-2.615-1.495-1.621-.747-2.734 1.006-4.11 1.308-.864.189-1.768-.196-2.615 0-1.8.415-1.916 1.898-2.803 3.176-2.268.672-3.33 2.41-2.803 5.418-1.127 1.014-1.726 2.575-1.308 3.924zm3.923-6.165c.98-.226.93-.083 1.682-.934.572.184-.215.499-.187.747.462-.348.762-.858 1.495-.934-.58-1.006 1.318-1.086.373-2.055 1.564.236 3.901.2 4.671-1.308-.036.151-.187.186-.187.374 1.518-.915 3.455 2.01 5.044.56 1.294 1.011 2.088 3.517 3.924 3.363.35 1.65.138 4.147 1.494 4.858-.587 1.49-1.84 3.024-1.12 5.231-2.026.59-2.641 2.59-3.737 4.11-1.688-.872-3.56.29-4.67 1.122-1.793-.816-2.778-1.944-5.233-1.308-.776-1.777-2.041-3.064-3.923-3.737.612-2.099-.278-3.997-1.308-5.044.916-1.368 2.244-2.753 1.682-5.045zM47.014 46.238c.45-.298.805-.69 1.309-.934-.99-4.893-2.591-7.34-2.804-13.452-.32-.613-.996-.872-2.055-.747-.977 1.277-.556 2.036-.747 2.99-.045-.204-.308-.45-.374-.188.17.404.117 1.328.374.56.016.723.117.587-.187 1.309 1.207 2.472 1.155 9.281 4.484 10.462zM33.002 35.963c-1.047-.028-1.953-.714-2.99-.187-.03-.22.033-.53-.187-.56-.42.553-1.76.593-1.494 0-.01.196-.24.146-.187-.188-.773-.162-.978 1.202-.747 0-.66.712-1.353.054-1.682 0-.47-.076-1.9-.08-2.242 0-.268.064-1.393 1.255-.934.187-3.744.141-8.01.326-12.705.187-.564.62-1.432.934-1.308 2.242.803 1.91 3.533.928 5.418.747 2.855-.274 7.268.193 10.276.187 2.666-.006 8.056.07 9.155-.934.08-.765-.173-1.197-.373-1.681zM8.526 41.941c-.049 2.824 3.902 1.53 6.726 1.309 3.699-.29 7.957.53 10.65-.374.23-.528.23-1.153 0-1.681-3.213-.576-5.115-1.536-6.54-.748-.256-1.14-1.926-.264-2.601-.047-.012.024-.07.042-.2.047a.872.872 0 00.2-.047c.053-.102-.71-.326-.574-.326-2.133-.004-7.623-.253-7.66 1.867zM13.758 48.48c3.515-.34 8.776-.175 12.144-.747.042-.146.005-.369.187-.373.108-.606-.128-.87-.187-1.308-3.213-.576-5.115-1.536-6.54-.748-.028-.22.033-.53-.186-.56-1.612.465-5.456.115-8.595.373-1.087.09-2.034.812-2.055 1.681-.051 2.11 3.099 1.89 5.232 1.682z"/><path d="M62.521 26.434c0-4.834 1.188-10.961-2.055-12.144-1.592-.582-5.133-.56-5.231.934-.144 2.182 3.221.78 4.67 1.681.6 4.684-.334 11.097-.373 17.19-.008 1.356.426 2.724.374 4.11-.074 1.962-.583 4.526.186 5.418-1.345 2.53-.37 6.294-.56 8.594v-.747c-.736.287.557 2.23 0 2.99-.369.378-1.365.13-1.495.746-.981-.088-1.518-.69-2.616-.747-.824-.043-1.632.351-2.428.374-1.371.04-2.768-.303-4.298-.374-2.847-.131-6.002.373-8.968.374-1.685 0-3.263-.096-4.858 0-1.33.08-2.69.606-3.923.187h.747c-6.685-.904-18.632.24-26.717-.374-.744-4.595.453-11.792-.56-16.628.953-7.836-.538-14.45.56-20.925 3.958-.17 10.724-.357 14.76-.374 2.606-.01 9.186 1.177 9.341-1.308.167-2.657-7.25-1.943-9.902-1.868-4.606.13-16.139-1.249-17.562 2.429-1.067 2.755.302 8.788.186 12.331-.158 4.862-.1 12.195 0 17.936.066 3.72-1.336 10.141 2.242 11.397 1.89.663 4.926.187 7.66.187 7.474 0 15.998-.152 22.981.187h7.847c6.278-1.31 12.363 1.208 17.563-.374 3.347-1.018 2.429-6.885 2.429-11.584V26.434z"/></g></svg>
