<svg xmlns="http://www.w3.org/2000/svg" xmlns:xlink="http://www.w3.org/1999/xlink" version="1.1" x="0px" y="0px" viewBox="0 0 100 125" enable-background="new 0 0 100 100" xml:space="preserve"><g><path fill-rule="evenodd" clip-rule="evenodd" d="M32.57,44.267c1.622,0.496,8.982-0.432,9.36-0.72   c1.501-1.143,0.9-3.482-0.96-4.08c-2.027-0.651-7.903,0.701-10.56,0.72c-2.6,0.019-5.799-0.312-9.12,0   c-0.609,0.431-1.134,0.946-0.96,2.16c2.278,1.235,4.312,1.661,6.72,1.2c0.333,0.147,0.036,0.924,0.48,0.96   c0.285-0.735,1.028-0.058,1.44-0.96c1.15,1.729,2.738,0.245,3.6,0.24C32.312,43.789,32.289,44.181,32.57,44.267z"/><path fill-rule="evenodd" clip-rule="evenodd" d="M55.85,70.667c2.269-2.011,3.79-7.639,4.561-11.52   c0.502-2.526,0.547-5.835,0.479-8.64c-0.363-0.835-1.611-1.246-2.64-0.72c-0.604,2.324-1.146,4.075-1.2,6.48   c-0.099,0.302-0.31,0.49-0.72,0.479c0.782,0.904-0.78,3.31-0.72,4.561c0.022,0.466,0.202,0.706,0.277,0.783   c-0.054-0.046-0.194-0.146-0.518-0.304c-0.567,4.193-3.586,5.611-4.56,8.4c0.493,0.468,0.788,1.132,1.2,1.68   C53.521,72.021,54.757,71.637,55.85,70.667z"/><path fill-rule="evenodd" clip-rule="evenodd" d="M85.13,64.188c-0.065-0.514,0.186-2.561-0.24-1.92   C84.955,62.781,84.704,64.827,85.13,64.188z"/><path fill-rule="evenodd" clip-rule="evenodd" d="M46.25,33.947c0.338,1.093,1.498,1.5,1.68,2.4c0.199,0.982-0.505,2.052-0.24,3.36   c0.415,2.05,2.739,2.264,4.08,3.84c0.552,0.648,0.265,1.735,0.721,2.4c0.497,0.726,2.124,1.388,2.399,2.16   c0.477-0.436,0.768-0.648,1.681,0c0.224-1.006,1.227,0.157,1.439-0.96c1.109,2.775,6.594,3.362,7.681,0.48   c-0.053,0.301-0.374,0.49,0.239,0.48c2.65-0.127,7.682-0.853,6.96-4.32c3.079-0.983,5.715-3.348,4.32-7.44   c2.695-1.851,2.266-6.036,0.24-7.68c0.32-2.801-0.328-4.632-1.44-6c-4.086-0.577-3.978-6.676-8.88-4.56   c-1.25-0.51-2.497-1.022-3.36-1.92c-2.082-0.959-3.512,1.293-5.279,1.68c-1.11,0.243-2.271-0.251-3.36,0   c-2.312,0.534-2.46,2.439-3.6,4.08c-2.913,0.863-4.277,3.096-3.6,6.96C46.483,30.209,45.713,32.215,46.25,33.947z M51.29,26.027   c1.259-0.29,1.194-0.106,2.16-1.2c0.735,0.236-0.276,0.641-0.24,0.96c0.593-0.447,0.979-1.102,1.92-1.2   c-0.744-1.292,1.693-1.395,0.48-2.64c2.008,0.303,5.011,0.256,6-1.68c-0.046,0.194-0.241,0.239-0.24,0.48   c1.949-1.175,4.438,2.583,6.479,0.72c1.662,1.299,2.682,4.517,5.04,4.32c0.45,2.119,0.178,5.327,1.92,6.24   c-0.754,1.913-2.364,3.885-1.439,6.72c-2.603,0.757-3.393,3.327-4.8,5.28c-2.169-1.121-4.574,0.371-6,1.44   c-2.303-1.048-3.568-2.497-6.721-1.68c-0.998-2.282-2.623-3.936-5.04-4.8c0.786-2.696-0.357-5.135-1.68-6.48   C50.305,30.75,52.011,28.971,51.29,26.027z"/><path fill-rule="evenodd" clip-rule="evenodd" d="M69.05,68.987c0.577-0.383,1.034-0.887,1.681-1.2   c-1.271-6.285-3.328-9.43-3.601-17.28c-0.412-0.788-1.28-1.12-2.64-0.96c-1.255,1.64-0.714,2.615-0.96,3.84   c-0.058-0.261-0.396-0.577-0.48-0.24c0.217,0.519,0.15,1.705,0.48,0.72c0.021,0.928,0.15,0.753-0.24,1.68   C64.84,58.723,64.774,67.47,69.05,68.987z"/><path fill-rule="evenodd" clip-rule="evenodd" d="M51.05,55.787c-1.344-0.036-2.508-0.916-3.84-0.24   c-0.038-0.282,0.042-0.681-0.24-0.72c-0.54,0.711-2.262,0.763-1.92,0c-0.013,0.253-0.308,0.188-0.24-0.24   c-0.993-0.209-1.256,1.543-0.96,0c-0.847,0.914-1.738,0.069-2.16,0c-0.603-0.098-2.441-0.104-2.88,0   c-0.344,0.082-1.79,1.612-1.2,0.24c-4.809,0.181-10.289,0.419-16.32,0.24c-0.724,0.796-1.839,1.2-1.68,2.88   c1.031,2.454,4.538,1.192,6.96,0.96c3.667-0.353,9.335,0.247,13.2,0.24c3.424-0.007,10.348,0.09,11.76-1.2   C51.633,56.964,51.308,56.41,51.05,55.787z"/><path fill-rule="evenodd" clip-rule="evenodd" d="M19.61,63.467c-0.063,3.627,5.012,1.964,8.64,1.681   c4.751-0.372,10.221,0.681,13.68-0.48c0.295-0.679,0.295-1.481,0-2.16c-4.127-0.739-6.57-1.973-8.4-0.96   c-0.33-1.465-2.475-0.34-3.342-0.061c-0.016,0.031-0.091,0.054-0.257,0.061c0.062-0.003,0.152-0.026,0.257-0.061   c0.068-0.131-0.912-0.419-0.737-0.419C26.711,61.063,19.658,60.744,19.61,63.467z"/><path fill-rule="evenodd" clip-rule="evenodd" d="M26.33,71.867c4.516-0.438,11.274-0.225,15.6-0.96   c0.054-0.187,0.006-0.474,0.24-0.479c0.139-0.779-0.164-1.117-0.24-1.681c-4.127-0.739-6.57-1.973-8.4-0.96   c-0.037-0.282,0.042-0.681-0.24-0.72c-2.071,0.598-7.008,0.148-11.04,0.479c-1.397,0.115-2.613,1.044-2.64,2.16   C19.544,72.416,23.59,72.133,26.33,71.867z"/><path fill-rule="evenodd" clip-rule="evenodd" d="M88.97,43.547c0-6.209,1.526-14.08-2.64-15.6c-2.045-0.747-6.594-0.719-6.72,1.2   c-0.185,2.803,4.138,1.002,6,2.16c0.77,6.017-0.43,14.254-0.48,22.081c-0.011,1.742,0.547,3.499,0.48,5.279   c-0.095,2.521-0.748,5.814,0.239,6.96c-1.727,3.25-0.476,8.085-0.72,11.04c0-0.319,0-0.64,0-0.96c-0.945,0.369,0.716,2.866,0,3.84   c-0.473,0.487-1.753,0.168-1.92,0.96c-1.26-0.114-1.95-0.887-3.36-0.96c-1.059-0.055-2.096,0.451-3.119,0.48   c-1.761,0.051-3.555-0.389-5.521-0.48c-3.657-0.169-7.71,0.479-11.52,0.48c-2.164,0.001-4.191-0.123-6.24,0   c-1.709,0.103-3.455,0.779-5.04,0.24c0.32,0,0.64,0,0.96,0c-8.587-1.161-23.934,0.308-34.32-0.48   c-0.955-5.902,0.582-15.148-0.72-21.359c1.225-10.066-0.69-18.562,0.72-26.88c5.085-0.219,13.776-0.459,18.96-0.48   c3.348-0.014,11.8,1.511,12-1.68c0.214-3.414-9.314-2.497-12.72-2.4c-5.917,0.168-20.731-1.604-22.56,3.12   c-1.37,3.539,0.388,11.289,0.24,15.84c-0.204,6.246-0.13,15.665,0,23.04c0.084,4.779-1.717,13.027,2.88,14.64   c2.427,0.852,6.327,0.24,9.84,0.24c9.6,0,20.55-0.195,29.52,0.24c3.36,0,6.72,0,10.08,0c8.064-1.683,15.881,1.552,22.56-0.48   c4.3-1.308,3.12-8.844,3.12-14.88C88.97,60.131,88.97,52.196,88.97,43.547z"/></g></svg>
